<svg id="Capa_1" enable-background="new 0 0 512 512" height="512" viewBox="0 0 512 512" width="512" xmlns="http://www.w3.org/2000/svg"><g><g><g><g><path d="m432 55c0-30.376-24.624-55-55-55h-60c-8.284 0-15 6.716-15 15v95h115c8.284 0 15-6.716 15-15z" fill="#ff6426"/><path d="m55 0c-30.376 0-55 24.624-55 55v40c0 8.284 6.716 15 15 15h302v-110z" fill="#beebfa"/><path d="m216 0h101v110h-101z" fill="#7ed8f7"/><path d="m0 95v362c0 30.327 24.673 55 55 55h322c30.327 0 55-24.673 55-55v-362z" fill="#fff5f5"/><path d="m216 95v417h161c30.327 0 55-24.673 55-55v-362z" fill="#ebe1dc"/></g></g></g><g><g><path d="m266 141h-190c-8.284 0-15 6.716-15 15v133.787l220 1.213v-135c0-8.284-6.716-15-15-15z" fill="#beebfa"/><path d="m266 141h-50v149.642l65 .358v-135c0-8.284-6.716-15-15-15z" fill="#7ed8f7"/><path d="m266 311c8.284 0 15-6.716 15-15v-5l-63-84c-6-8-18-8-24 0l-28.194 37.592v44.408l66.407 22z" fill="#00ccb3"/><g><path d="m216 204.846v100.783l16.213 5.371h33.787c8.284 0 15-6.716 15-15v-5l-63-84c-.605-.807-1.285-1.51-2-2.154z" fill="#00aa95"/></g></g><path d="m125.393 225.393-64.393 64.394v6.213c0 8.284 6.716 15 15 15h156.213l-85.606-85.607c-5.858-5.858-15.356-5.858-21.214 0z" fill="#00eed1"/></g><g><path d="m216 311h16.213l-16.213-16.213z" fill="#00ccb3"/></g><g><g><path d="m307 381h-231c-8.284 0-15-6.716-15-15s6.716-15 15-15h231c8.284 0 15 6.716 15 15s-6.716 15-15 15z" fill="#828282"/></g><path d="m307 351h-91v30h91c8.284 0 15-6.716 15-15s-6.716-15-15-15z" fill="#5a5a5a"/></g><g><path d="m286.929 451h-210.929c-8.284 0-15-6.716-15-15s6.716-15 15-15h210.929" fill="#828282"/><path d="m286.929 421h-70.929v30h70.929" fill="#5a5a5a"/></g><g><path d="m272.686 431.411c-4.817 15.303 14.517 26.466 25.362 14.643l63.434-69.156c4.142-7.174 1.684-16.348-5.49-20.49l-34.641-20c-7.174-4.142-16.348-1.684-20.49 5.49z" fill="#ffdecf"/><path d="m426.683 123.965-30 51.962c-4.142 7.174-1.684 16.348 5.49 20.49l34.641 20c7.174 4.142 16.348 1.684 20.49-5.49l30-51.962c4.142-7.174 1.684-16.348-5.49-20.49l-34.641-20c-7.174-4.142-16.348-1.684-20.49 5.49z" fill="#fff5f5"/><path d="m298.048 446.053 63.434-69.156c4.142-7.174 1.684-16.348-5.49-20.49l-17.32-10-59.177 102.497c5.586 3.226 13.131 3.061 18.553-2.851z" fill="#ffbeaa"/><path d="m457.305 210.927 30-51.962c4.142-7.174 1.684-16.348-5.49-20.49l-17.32-10-45 77.942 17.32 10c7.174 4.142 16.348 1.684 20.49-5.49z" fill="#ebe1dc"/><path d="m494.494 76.513c-16.74-9.665-38.146-3.929-47.811 12.811l-20 34.641 60.622 35 20-34.641c9.665-16.74 3.929-38.146-12.811-47.811z" fill="#ff9f22"/><path d="m507.305 124.324c9.665-16.74 3.929-38.146-12.811-47.811l-37.5 64.952 30.311 17.5z" fill="#ff6426"/><path d="m283.259 241.412h191.646v70h-191.646z" fill="#beebfa" transform="matrix(.5 -.866 .866 .5 -49.839 466.501)"/><path d="m298.415 267.662h191.646v35h-191.646z" fill="#7ed8f7" transform="matrix(.5 -.866 .866 .5 -49.839 484.001)"/></g></g></svg>